<?xml version="1.0" encoding="utf-8"?>
<!-- Generator: Adobe Illustrator 22.0.1, SVG Export Plug-In . SVG Version: 6.00 Build 0)  -->
<svg version="1.1" xmlns="http://www.w3.org/2000/svg" xmlns:xlink="http://www.w3.org/1999/xlink" x="0px" y="0px"
	 viewBox="0 0 1024 1024" style="enable-background:new 0 0 1024 1024;" xml:space="preserve">
<style type="text/css">
	.st0{display:none;}
	.st1{fill:#333333;}
</style>
<g id="图层_1" class="st0">
</g>
<g id="图层_2" class="st0">
</g>
<g id="图层_3" class="st0">
</g>
<g id="图层_4">
	<path class="st1" d="M512,64.035c-247.423,0-447.999,200.576-447.999,447.999S264.577,960.033,512,960.033
		s447.999-200.576,447.999-447.999S759.423,64.035,512,64.035z M674.214,285.821c17.609-17.637,46.571-17.602,64.059-0.063
		c17.346,17.397,17.464,46.06,0.126,63.68C684.266,403.626,576,512,576,512s108.276,108.241,162.415,162.361
		c17.431,17.612,17.351,46.399-0.127,63.884c-17.53,17.538-46.427,17.57-64.024,0.019c-54.13-54.13-162.391-162.391-162.391-162.391
		S403.599,684.143,349.462,738.278c-17.565,17.407-46.267,17.357-63.714-0.009c-17.551-17.47-17.61-46.391-0.028-63.99
		C339.813,620.185,448,512,448,512S339.886,403.877,285.829,349.815c-17.631-17.536-17.678-46.48-0.118-64.067
		c17.546-17.573,46.462-17.586,64.031-0.015C403.828,339.822,512,448,512,448"/>
</g>
</svg>
