<?xml version="1.0" encoding="utf-8"?>
<!-- Generator: Adobe Illustrator 22.0.1, SVG Export Plug-In . SVG Version: 6.00 Build 0)  -->
<svg version="1.1" xmlns="http://www.w3.org/2000/svg" xmlns:xlink="http://www.w3.org/1999/xlink" x="0px" y="0px"
	 viewBox="0 0 1024 1024" style="enable-background:new 0 0 1024 1024;" xml:space="preserve">
<style type="text/css">
	.st0{display:none;}
	.st1{fill:#333333;}
</style>
<g id="图层_1" class="st0">
</g>
<g id="图层_2">
</g>
<g id="图层_3">
</g>
<g id="图层_4">
	<path class="st1" d="M512.004,64.001c-245.778,0-447.986,202.269-447.999,448.007C63.992,757.78,266.235,960.079,512.036,960.061
		c245.772-0.018,447.979-202.299,447.967-448.053C959.99,266.263,757.777,64.001,512.004,64.001z M650.917,318.599
		c15.087-15.111,39.901-15.081,54.884-0.054c14.862,14.905,14.963,39.463,0.108,54.56c-46.38,46.426-139.14,139.279-139.14,139.279
		s92.769,92.738,139.153,139.108c14.934,15.089,14.866,39.753-0.109,54.735c-15.019,15.026-39.777,15.053-54.854,0.016
		C604.583,659.865,511.828,567.11,511.828,567.11s-92.767,92.763-139.151,139.144c-15.049,14.914-39.641,14.871-54.589-0.008
		c-15.037-14.968-15.088-39.746-0.024-54.825c46.346-46.345,139.038-139.036,139.038-139.036s-92.63-92.638-138.945-138.956
		c-15.106-15.025-15.146-39.823-0.102-54.891c15.033-15.056,39.808-15.067,54.861-0.012
		c46.34,46.342,139.019,139.026,139.019,139.026"/>
</g>
</svg>
