<?xml version="1.0" encoding="utf-8"?>
<!-- Generator: Adobe Illustrator 22.0.1, SVG Export Plug-In . SVG Version: 6.00 Build 0)  -->
<svg version="1.1" xmlns="http://www.w3.org/2000/svg" xmlns:xlink="http://www.w3.org/1999/xlink" x="0px" y="0px"
	 viewBox="0 0 1024 1024" style="enable-background:new 0 0 1024 1024;" xml:space="preserve">
<style type="text/css">
	.st0{display:none;}
	.st1{fill:#333333;}
</style>
<g id="图层_1" class="st0">
</g>
<g id="图层_2">
</g>
<g id="图层_3">
</g>
<g id="图层_4">
	<path class="st1" d="M511.964,63.938C266.182,63.96,64,266.276,64.004,512.008c0.005,245.752,202.228,448.071,448.032,448.053
		c245.782-0.018,447.962-202.329,447.967-448.053C960.008,266.249,757.778,63.916,511.964,63.938z M767.767,404.335L489.594,703.206
		c-5.024,6.007-18.181,20.05-40.231,26.298c-7.298,2.068-25.33,6.899-46.076-0.838c-17.278-6.443-27.298-18.195-31.345-23.558
		L272.578,565.75c0,0-8.838-19.03-2.703-34.5c8.72-21.987,36.146-25.506,41.814-26.233c16.138-2.071,35.106,5.789,35.106,5.789
		l79.315,57.18l269.499-213.91c0,0,20.518-13.05,41.637-8.909c6.072,1.19,25.636,5.026,33.501,22.85
		C778.398,385.355,767.767,404.335,767.767,404.335z"/>
</g>
<g id="图层_5" class="st0">
</g>
</svg>
