<?xml version="1.0" encoding="utf-8"?>
<!-- Generator: Adobe Illustrator 22.0.1, SVG Export Plug-In . SVG Version: 6.00 Build 0)  -->
<svg version="1.1" xmlns="http://www.w3.org/2000/svg" xmlns:xlink="http://www.w3.org/1999/xlink" x="0px" y="0px"
	 viewBox="0 0 1024 1024" style="enable-background:new 0 0 1024 1024;" xml:space="preserve">
<style type="text/css">
	.st0{display:none;}
	.st1{fill:#333333;}
</style>
<g id="图层_1" class="st0">
</g>
<g id="图层_2" class="st0">
</g>
<g id="图层_3" class="st0">
</g>
<g id="图层_4">
	<path class="st1" d="M511.964,63.938C266.182,63.96,64,266.276,64.004,512.008c0.005,245.752,202.228,448.071,448.032,448.053
		c245.782-0.018,447.962-202.329,447.967-448.053C960.008,266.249,757.778,63.916,511.964,63.938z M767.767,404.335L489.594,703.206
		c-5.024,6.007-18.181,20.05-40.231,26.298c-7.298,2.068-25.33,6.899-46.076-0.838c-17.278-6.443-27.298-18.195-31.345-23.558
		L272.578,565.75c-1.214-2.534-8.427-18.236-1.124-34.498c8.125-18.091,27.597-22.138,32.726-23.203
		c19.22-3.994,34.426,4.654,38.278,7.004c28.165,25.59,56.33,51.181,84.495,76.771c90.118-74.751,180.237-149.503,270.355-224.254
		c5.31-3.847,18.969-12.605,37.624-12.195c8.73,0.192,27.579,0.606,35.608,14.721C779.054,385.06,768.453,403.2,767.767,404.335z"/>
</g>
<g id="图层_5" class="st0">
</g>
</svg>
