<?xml version="1.0" encoding="utf-8"?>
<!-- Generator: Adobe Illustrator 22.0.1, SVG Export Plug-In . SVG Version: 6.00 Build 0)  -->
<svg version="1.1" xmlns="http://www.w3.org/2000/svg" xmlns:xlink="http://www.w3.org/1999/xlink" x="0px" y="0px"
	 viewBox="0 0 1024 1024" style="enable-background:new 0 0 1024 1024;" xml:space="preserve">
<style type="text/css">
	.st1{fill:#333333;}
</style>
<g>
	<path class="st1" d="M504.6,499c0-149.4,0-298.7,0-448.1C464.4,51,375.3,56.6,280.8,111c-94.7,54.6-144.1,129.2-164.3,163.9
		C245.9,349.6,375.2,424.3,504.6,499z"/>
</g>
<g>
	<path class="st1" d="M275.3,384c-11.4,19.8-34.2,65.6-34.2,128c0,62.5,22.8,108.2,34.3,128c73.9-42.7,147.8-85.3,221.7-128
		C423.1,469.3,349.2,426.7,275.3,384z"/>
</g>
<g>
	<path class="st1" d="M172,717.1c17.1,29.7,59.4,93.7,140.6,140.6c81.2,46.8,157.7,51.4,192,51.4c0-128,0-256,0-384
		C393.7,589,282.8,653,172,717.1z"/>
</g>
<g>
	<path class="st1" d="M519.5,716.9c17.1,0,55.4-2.3,96-25.7c40.6-23.4,61.7-55.4,70.3-70.3C630.4,589,575,557,519.5,525
		C519.5,589,519.5,653,519.5,716.9z"/>
</g>
<g>
	<path class="st1" d="M804.1,352c14.3,24.8,42.8,82,42.8,160c0,78.1-28.5,135.2-42.8,160C711.8,618.7,619.4,565.4,527,512
		C619.4,458.7,711.8,405.3,804.1,352z"/>
</g>
<g>
	<path class="st1" d="M519.5,371c11.4,0,36.9,1.6,64,17.2c26.9,15.6,41,36.9,46.7,46.8c-36.9,21.3-73.7,42.7-110.6,64
		C519.5,456.3,519.5,413.7,519.5,371z"/>
</g>
</svg>
