<?xml version="1.0" encoding="utf-8"?>
<!-- Generator: Adobe Illustrator 22.0.1, SVG Export Plug-In . SVG Version: 6.00 Build 0)  -->
<svg version="1.1" xmlns="http://www.w3.org/2000/svg" xmlns:xlink="http://www.w3.org/1999/xlink" x="0px" y="0px"
	 viewBox="0 0 1024 1024" style="enable-background:new 0 0 1024 1024;" xml:space="preserve">
<style type="text/css">
	.st1{fill:#333333;}
</style>
<g>
	<path class="st1" d="M504.6,448.4c0-132.5,0-265,0-397.5C464.4,51,375.3,56.6,280.8,111c-94.7,54.6-144.1,129.2-164.3,163.9
		c114.7,66.2,344.1,198.7,344.1,198.7c3.3-4.3,9.4-11.4,19.3-17.1C489.9,450.8,499.2,449.1,504.6,448.4z"/>
</g>
<g>
	<path class="st1" d="M275.3,384c-11.4,19.8-34.2,65.6-34.2,128c0,62.5,22.8,108.2,34.3,128c59.3-34.2,177.9-102.7,177.9-102.7
		c-2.1-5-5.2-13.9-5.2-25.3c0-11.4,3.1-20.3,5.2-25.3C393.9,452.5,334.6,418.2,275.3,384z"/>
</g>
<g>
	<path class="st1" d="M172,717.1c17.1,29.7,59.4,93.7,140.6,140.6c81.2,46.8,157.7,51.4,192,51.4c0-111.2,0-333.5,0-333.5
		c-5.4-0.6-14.6-2.4-24.5-8.1c-9.9-5.7-16-12.8-19.2-17.1C364.5,605.9,268.2,661.5,172,717.1z"/>
</g>
<g>
	<path class="st1" d="M519.5,716.9c17.1,0,55.4-2.3,96-25.7c40.6-23.4,61.7-55.4,70.3-70.3c-40.9-23.6-122.6-70.7-122.6-70.7
		c-3.2,4.3-9.4,11.4-19.3,17.2c-9.9,5.7-19.1,7.5-24.5,8.1C519.5,622.7,519.5,669.8,519.5,716.9z"/>
</g>
<g>
	<path class="st1" d="M804.1,352c14.3,24.8,42.8,82,42.8,160c0,78.1-28.5,135.2-42.8,160c-77.8-44.9-155.6-89.8-233.4-134.7
		c2.1-5,5.2-13.9,5.2-25.3c0-11.4-3-20.3-5.2-25.3C648.6,441.8,726.4,396.9,804.1,352z"/>
</g>
<g>
	<path class="st1" d="M519.5,371c11.4,0,36.9,1.6,64,17.2c26.9,15.6,41,36.9,46.7,46.8c-22.3,12.9-44.6,25.8-66.9,38.7
		c-3.2-4.3-9.4-11.4-19.3-17.1c-9.9-5.7-19.1-7.5-24.5-8.1C519.5,422.6,519.5,396.8,519.5,371z"/>
</g>
</svg>
